<?xml version="1.0" standalone="no"?>
<!DOCTYPE svg PUBLIC "-//W3C//DTD SVG 20010904//EN"
 "http://www.w3.org/TR/2001/REC-SVG-20010904/DTD/svg10.dtd">
<svg version="1.0" xmlns="http://www.w3.org/2000/svg"
 width="512.000000pt" height="512.000000pt" viewBox="0 0 512.000000 512.000000"
 preserveAspectRatio="xMidYMid meet">
<metadata>
Created by potrace 1.14, written by Peter Selinger 2001-2017
</metadata>
<g transform="translate(0.000000,512.000000) scale(0.100000,-0.100000)"
fill="#000000" stroke="none">
<path d="M370 4771 c-89 -28 -155 -85 -194 -171 l-26 -55 0 -297 0 -298 2410
0 2410 0 0 298 0 297 -26 55 c-31 68 -74 114 -139 148 l-50 27 -2180 2 c-1199
1 -2191 -2 -2205 -6z"/>
<path d="M381 3614 c-27 -34 -27 -64 0 -98 l20 -26 559 0 559 0 20 26 c28 35
26 69 -4 99 l-24 25 -555 0 -555 0 -20 -26z"/>
<path d="M2535 3633 c-416 -65 -771 -356 -914 -750 -49 -133 -65 -232 -66
-393 0 -323 111 -595 335 -820 297 -298 729 -410 1138 -295 104 30 286 118
360 175 29 22 56 40 60 40 4 0 34 -27 67 -60 l59 -60 -41 -42 c-51 -54 -63
-77 -63 -125 0 -37 13 -51 378 -415 419 -419 418 -418 552 -426 139 -8 249 58
312 186 28 57 33 76 33 142 -1 137 -9 148 -378 519 -398 399 -423 421 -483
421 -38 0 -51 -6 -90 -42 l-45 -41 -64 63 -63 63 45 65 c184 270 244 626 158
952 -45 170 -157 369 -284 504 -122 129 -352 264 -536 312 -86 23 -124 27
-270 29 -93 2 -183 1 -200 -2z m399 -328 c303 -88 519 -312 603 -625 13 -47
17 -102 17 -200 -1 -117 -4 -147 -28 -225 -35 -115 -92 -222 -168 -314 l-60
-73 -36 63 c-19 35 -67 96 -106 134 -242 239 -627 245 -878 15 -56 -51 -137
-155 -152 -195 -13 -35 -162 174 -208 292 -198 509 126 1067 667 1153 96 15
249 4 349 -25z"/>
<path d="M2630 2937 c-140 -39 -225 -152 -225 -297 0 -173 127 -303 298 -304
124 0 223 59 276 166 27 52 31 72 31 138 0 66 -4 86 -31 138 -64 129 -215 197
-349 159z"/>
<path d="M403 3320 c-47 -19 -57 -87 -18 -125 l24 -25 346 0 347 0 29 29 c37
37 37 65 0 102 l-29 29 -339 -1 c-186 0 -348 -4 -360 -9z"/>
</g>
</svg>
